# Blender 5.0.1
# www.blender.org
mtllib chest.mtl
o chest
v -0.800000 -0.262695 0.485350
v -0.800000 0.337305 0.485350
v -0.800000 -0.262695 -0.514650
v -0.800000 0.337305 -0.514650
v 0.800000 -0.262695 0.485350
v 0.800000 0.337305 0.485350
v 0.800000 -0.262695 -0.514650
v 0.800000 0.337305 -0.514650
v 0.750000 0.337305 -0.414650
v 0.750000 -0.262695 -0.414650
v -0.800000 0.337305 0.385350
v -0.800000 0.337305 -0.414650
v -0.800000 -0.262695 0.385350
v 0.750000 -0.262695 0.385350
v -0.750000 0.337305 -0.414650
v -0.800000 -0.262695 -0.414650
v -0.750000 0.337305 0.385350
v -0.750000 -0.262695 0.385350
v 0.800000 0.337305 0.385350
v 0.800000 -0.262695 -0.414650
v 0.800000 -0.262695 0.385350
v 0.800000 0.337305 -0.414650
v -0.750000 -0.262695 -0.414650
v 0.750000 0.337305 0.385350
v 0.350000 -0.262695 -0.514650
v -0.350000 -0.262695 -0.514650
v -0.350000 0.337305 -0.514650
v 0.350000 0.337305 -0.514650
v -0.350000 -0.262695 0.485350
v 0.350000 -0.262695 0.485350
v 0.350000 0.337305 0.485350
v -0.350000 0.337305 0.485350
v -0.650000 0.337305 0.385350
v 0.650000 0.337305 0.385350
v -0.650000 0.337305 -0.414650
v 0.650000 0.337305 -0.414650
v 0.650000 0.337305 -0.514650
v 0.650000 -0.262695 0.485350
v 0.650000 -0.262695 -0.514650
v 0.650000 0.337305 0.485350
v -0.650000 -0.262695 -0.514650
v -0.650000 0.337305 0.485350
v -0.650000 0.337305 -0.514650
v -0.650000 -0.262695 0.485350
v -0.605000 -0.237695 0.585350
v -0.650000 -0.262695 0.560350
v -0.350000 -0.262695 0.560350
v -0.395000 -0.237695 0.585350
v 0.605000 0.237305 0.585350
v 0.650000 0.262305 0.560350
v 0.350000 0.262305 0.560350
v 0.395000 0.237305 0.585350
v 0.350000 -0.262695 0.560350
v 0.395000 -0.237695 0.585350
v -0.395000 0.237305 0.585350
v -0.350000 0.262305 0.560350
v 0.650000 -0.262695 0.560350
v 0.605000 -0.237695 0.585350
v -0.650000 0.262305 0.560350
v -0.605000 0.237305 0.585350
v 0.605000 -0.237695 -0.614650
v 0.650000 -0.262695 -0.589650
v 0.350000 -0.262695 -0.589650
v 0.395000 -0.237695 -0.614650
v -0.605000 0.237305 -0.614650
v -0.650000 0.262305 -0.589650
v -0.350000 0.262305 -0.589650
v -0.395000 0.237305 -0.614650
v -0.350000 -0.262695 -0.589650
v -0.395000 -0.237695 -0.614650
v 0.395000 0.237305 -0.614650
v 0.350000 0.262305 -0.589650
v 0.650000 0.262305 -0.589650
v 0.605000 0.237305 -0.614650
v -0.650000 -0.262695 -0.589650
v -0.605000 -0.237695 -0.614650
v -0.800000 0.022303 0.485350
v -0.800000 0.022303 -0.514650
v 0.800000 0.022303 -0.514650
v 0.800000 0.022303 0.485350
v 0.800000 0.022303 0.385350
v 0.800000 0.022303 -0.414650
v 0.750000 0.022303 -0.414650
v 0.750000 0.022303 0.385350
v -0.750000 0.022303 0.385350
v -0.800000 0.022303 -0.414650
v -0.800000 0.022303 0.385350
v -0.750000 0.022303 -0.414650
v -0.350000 0.022303 -0.514650
v 0.350000 0.022303 -0.514650
v 0.350000 0.022303 0.485350
v -0.350000 0.022303 0.485350
v 0.650000 0.022303 0.485350
v 0.650000 0.022303 -0.514650
v -0.650000 0.022303 -0.514650
v -0.650000 0.022303 0.485350
v -0.650000 -0.162695 0.385350
v -0.650000 -0.162695 -0.414650
v 0.650000 -0.162695 0.385350
v 0.650000 -0.162695 -0.414650
v 0.150000 0.237305 0.485350
v -0.150000 0.237305 0.485350
v 0.150000 0.237305 0.585350
v -0.150000 0.237305 0.585350
v 0.150000 0.150465 0.485350
v 0.071838 0.072303 0.485350
v 0.127107 0.095196 0.485350
v -0.071838 0.072303 0.485350
v -0.150000 0.150465 0.485350
v -0.127107 0.095196 0.485350
v 0.071838 0.072303 0.585350
v 0.150000 0.150465 0.585350
v 0.127107 0.095196 0.585350
v -0.150000 0.150465 0.585350
v -0.071838 0.072303 0.585350
v -0.127107 0.095196 0.585350
v 0.461832 -0.180862 0.611330
v 0.461832 -0.104525 0.611330
v 0.538168 -0.180862 0.611330
v 0.538168 -0.104525 0.611330
v 0.453468 -0.189226 0.585350
v 0.453468 -0.142694 0.619694
v 0.453468 -0.096162 0.585350
v 0.546532 -0.189226 0.585350
v 0.546532 -0.096162 0.585350
v 0.546532 -0.142694 0.619694
v 0.500000 -0.189226 0.619694
v 0.500000 -0.096162 0.619694
v 0.435916 -0.142694 0.585350
v 0.564084 -0.142694 0.585350
v 0.500000 -0.142694 0.631153
v 0.500000 -0.206778 0.585350
v 0.500000 -0.078609 0.585350
v -0.538168 -0.180862 0.611330
v -0.538168 -0.104525 0.611330
v -0.461832 -0.180862 0.611330
v -0.461832 -0.104525 0.611330
v -0.546532 -0.189226 0.585350
v -0.546532 -0.142694 0.619694
v -0.546532 -0.096162 0.585350
v -0.453468 -0.189226 0.585350
v -0.453468 -0.096162 0.585350
v -0.453468 -0.142694 0.619694
v -0.500000 -0.189226 0.619694
v -0.500000 -0.096162 0.619694
v -0.564084 -0.142694 0.585350
v -0.435916 -0.142694 0.585350
v -0.500000 -0.142694 0.631153
v -0.500000 -0.206778 0.585350
v -0.500000 -0.078609 0.585350
vn -0.0000 1.0000 -0.0000
vn -0.0000 -0.0000 1.0000
vn -0.0000 -0.0000 -1.0000
vn -0.0000 -1.0000 -0.0000
vn 1.0000 -0.0000 -0.0000
vn -1.0000 -0.0000 -0.0000
vn -0.0000 0.7071 -0.7071
vn -0.0000 0.7071 0.7071
vn -0.0000 -0.7071 0.7071
vn -0.4856 -0.0000 0.8742
vn 0.4856 -0.0000 0.8742
vn -0.0000 -0.7071 -0.7071
vn 0.4856 -0.0000 -0.8742
vn -0.4856 -0.0000 -0.8742
vn -0.9808 -0.1951 -0.0000
vn -0.1951 -0.9808 -0.0000
vn 0.1951 -0.9808 -0.0000
vn -0.7071 -0.7071 -0.0000
vn 0.9808 -0.1951 -0.0000
vn 0.7071 -0.7071 -0.0000
vn -0.5319 -0.5319 0.6590
vn -0.6405 -0.0000 0.7679
vn -0.9020 -0.0000 0.4317
vn -0.6324 -0.6324 0.4473
vn -0.5319 0.5319 0.6590
vn -0.6324 0.6324 0.4473
vn 0.9020 -0.0000 0.4317
vn 0.6324 0.6324 0.4473
vn 0.5319 0.5319 0.6590
vn 0.6405 -0.0000 0.7679
vn 0.6324 -0.6324 0.4473
vn 0.5319 -0.5319 0.6590
vn -0.0000 -0.6405 0.7679
vn -0.0000 0.6405 0.7679
vn -0.0000 -0.9020 0.4317
vn -0.0000 0.9020 0.4317
vt 0.568698 0.934377
vt 0.566032 0.934377
vt 0.564699 0.934377
vt 0.568698 0.858348
vt 0.568698 0.918752
vt 0.566032 0.918752
vt 0.566032 0.858348
vt 0.566032 0.801245
vt 0.564699 0.801245
vt 0.564699 0.858348
vt 0.598020 0.858348
vt 0.598020 0.918752
vt 0.600686 0.918752
vt 0.600686 0.858348
vt 0.598020 0.934377
vt 0.600686 0.934377
vt 0.566032 0.827098
vt 0.566032 0.856252
vt 0.564699 0.856252
vt 0.564699 0.827098
vt 0.568698 0.801245
vt 0.600686 0.905223
vt 0.600686 0.816870
vt 0.600686 0.801245
vt 0.602019 0.801245
vt 0.598020 0.801245
vt 0.602019 0.934377
vt 0.600686 0.827098
vt 0.600686 0.856252
vt 0.602019 0.856252
vt 0.602019 0.827098
vt 0.564699 0.842723
vt 0.564699 0.871877
vt 0.602019 0.858348
vt 0.602019 0.842723
vt 0.602019 0.871877
vt 0.566032 0.842723
vt 0.566032 0.903127
vt 0.590023 0.934377
vt 0.576695 0.934377
vt 0.153216 0.782101
vt 0.132312 0.782101
vt 0.576695 0.858348
vt 0.576695 0.918752
vt 0.590023 0.918752
vt 0.590023 0.858348
vt 0.156049 0.829003
vt 0.156049 0.797726
vt 0.576695 0.801245
vt 0.590023 0.801245
vt 0.156049 0.910809
vt 0.176953 0.910809
vt 0.173818 0.904156
vt 0.159185 0.904156
vt 0.223020 0.769995
vt 0.215023 0.769995
vt 0.201695 0.769995
vt 0.193698 0.769995
vt 0.153216 0.829003
vt 0.153216 0.899514
vt 0.153216 0.879559
vt 0.176953 0.829003
vt 0.176953 0.899514
vt 0.176953 0.879559
vt 0.132312 0.829003
vt 0.132312 0.797726
vt 0.156049 0.782101
vt 0.176953 0.782101
vt 0.132312 0.879559
vt 0.153216 0.910809
vt 0.132312 0.910809
vt 0.135447 0.904156
vt 0.150080 0.904156
vt 0.150080 0.820002
vt 0.150080 0.888531
vt 0.135447 0.888531
vt 0.135447 0.820002
vt 0.132312 0.899514
vt 0.176953 0.797726
vt 0.153216 0.797726
vt 0.156049 0.899514
vt 0.156049 0.879559
vt 0.150080 0.788752
vt 0.135447 0.788752
vt 0.159185 0.820002
vt 0.159185 0.888531
vt 0.173818 0.888531
vt 0.173818 0.820002
vt 0.159185 0.804377
vt 0.159185 0.872906
vt 0.173818 0.788752
vt 0.159185 0.788752
vt 0.150080 0.872906
vt 0.150080 0.804377
vt 0.173818 0.872906
vt 0.173818 0.804377
vt 0.135447 0.804377
vt 0.135447 0.872906
vt 0.566032 0.832495
vt 0.566032 0.889598
vt 0.568698 0.889598
vt 0.568698 0.832495
vt 0.600686 0.832495
vt 0.600686 0.889598
vt 0.598020 0.889598
vt 0.598020 0.832495
vt 0.590023 0.832495
vt 0.590023 0.889598
vt 0.576695 0.889598
vt 0.576695 0.832495
vt 0.602019 0.816870
vt 0.602019 0.873973
vt 0.566032 0.816870
vt 0.566032 0.905223
vt 0.564699 0.816870
vt 0.564699 0.873973
vt 0.600686 0.903127
vt 0.600686 0.842723
vt 0.176953 0.930764
vt 0.156049 0.930764
vt 0.153216 0.930764
vt 0.132312 0.930764
vt 0.568698 0.871877
vt 0.568698 0.827871
vt 0.598020 0.871877
vt 0.598020 0.827871
vt 0.590023 0.887502
vt 0.576695 0.887502
vt 0.568698 0.843496
vt 0.598020 0.843496
vt 0.568698 0.859121
vt 0.598020 0.859121
vt 0.201695 0.871368
vt 0.215023 0.871368
vt 0.215023 0.896302
vt 0.201695 0.896302
vt 0.215023 0.908777
vt 0.201695 0.908777
vt 0.201695 0.883827
vt 0.201695 0.858893
vt 0.205167 0.825824
vt 0.211551 0.825824
vt 0.202034 0.828055
vt 0.201695 0.825824
vt 0.201695 0.838299
vt 0.202034 0.840530
vt 0.215023 0.858893
vt 0.214684 0.840530
vt 0.215023 0.838299
vt 0.215023 0.825824
vt 0.214684 0.828055
vt 0.215023 0.883827
vt 0.202034 0.853005
vt 0.214684 0.853005
vt 0.205167 0.850775
vt 0.211551 0.850775
vt 0.173325 0.795443
vt 0.170219 0.817256
vt 0.163700 0.817256
vt 0.170219 0.790663
vt 0.173325 0.887155
vt 0.170219 0.843847
vt 0.211299 0.817256
vt 0.204781 0.843847
vt 0.201675 0.887154
vt 0.204781 0.817256
vt 0.204781 0.790663
vt 0.201675 0.795443
vt 0.204781 0.841299
vt 0.187500 0.841299
vt 0.187500 0.814707
vt 0.187500 0.892341
vt 0.170219 0.841299
vt 0.187500 0.756589
vt 0.204781 0.766620
vt 0.187500 0.766620
vt 0.170219 0.766620
vt 0.187500 0.901965
vt 0.170219 0.891934
vt 0.187500 0.915571
vt 0.204781 0.891934
s 1
usemtl texture.004
f 35/1/1 43/1/1 15/2/1
f 2/2/1 42/1/1 17/2/1 11/3/1
f 96/4/2 42/5/2 2/6/2 77/7/2
f 85/7/3 18/8/3 13/9/3 87/10/3
f 94/11/3 37/12/3 8/13/3 79/14/3
f 37/15/1 36/15/1 9/16/1
f 88/17/2 15/18/2 12/19/2 86/20/2
f 18/8/4 44/21/4 1/9/4 13/9/4
f 83/22/5 84/22/5 14/23/5 10/23/5
f 14/24/4 21/25/4 5/24/4 38/26/4
f 24/16/1 40/15/1 6/27/1 19/27/1
f 84/28/3 24/29/3 19/30/3 81/31/3
f 34/15/1 40/15/1 24/16/1
f 86/32/6 12/33/6 4/33/6 78/32/6
f 8/16/1 37/15/1 9/16/1 22/27/1
f 77/32/6 2/33/6 11/33/6 87/32/6
f 33/1/1 35/1/1 15/2/1 17/2/1
f 83/14/2 10/24/2 20/25/2 82/34/2
f 7/25/4 20/25/4 10/24/4 39/26/4
f 43/1/1 4/3/1 12/3/1 15/2/1
f 81/35/5 19/36/5 6/36/5 80/35/5
f 85/37/6 17/38/6 15/38/6 88/37/6
f 79/35/5 8/36/5 22/36/5 82/35/5
f 3/8/4 41/21/4 23/8/4 16/9/4
f 34/39/1 31/39/1 40/15/1
f 34/39/1 33/40/1 32/40/1 31/39/1
f 37/15/1 28/39/1 36/15/1
f 28/39/1 27/40/1 35/40/1 36/39/1
f 26/41/4 41/42/4 75/42/4 69/41/4
f 89/43/3 27/44/3 28/45/3 90/46/3
f 91/47/6 30/48/6 53/48/6
f 91/46/2 31/45/2 32/44/2 92/43/2
f 26/49/4 25/50/4 30/50/4 29/49/4
f 14/24/4 38/26/4 39/26/4 10/24/4
f 80/14/2 6/13/2 40/12/2 93/11/2
f 42/1/1 33/1/1 17/2/1
f 72/51/7 73/52/7 74/53/7 71/54/7
f 38/55/4 30/56/4 25/56/4 39/55/4
f 44/21/4 18/8/4 23/8/4 41/21/4
f 78/7/3 4/6/3 43/5/3 95/4/3
f 36/15/1 34/15/1 24/16/1 9/16/1
f 29/57/4 44/58/4 41/58/4 26/57/4
f 33/1/1 42/1/1 32/40/1
f 27/40/1 43/1/1 35/40/1
f 92/59/5 32/60/5 56/61/5
f 93/62/5 40/63/5 50/64/5
f 96/65/6 44/66/6 46/66/6
f 30/67/4 38/68/4 57/68/4 53/67/4
f 46/66/6 59/69/6 96/65/6
f 56/70/8 59/71/8 60/72/8 55/73/8
f 50/52/8 51/51/8 52/54/8 49/53/8
f 48/74/2 55/75/2 60/76/2 45/77/2
f 39/68/4 25/67/4 63/67/4 62/68/4
f 95/65/6 43/78/6 66/69/6
f 94/62/5 39/79/5 62/79/5
f 89/59/5 26/80/5 69/80/5
f 90/47/6 28/81/6 72/82/6
f 72/82/6 63/48/6 90/47/6
f 76/77/3 65/76/3 68/75/3 70/74/3
f 66/71/7 67/70/7 68/73/7 65/72/7
f 46/42/9 47/41/9 48/83/9 45/84/9
f 64/85/3 71/86/3 74/87/3 61/88/3
f 51/82/10 53/48/10 54/89/10 52/90/10
f 53/67/9 57/68/9 58/91/9 54/92/9
f 55/93/11 48/94/11 47/80/11 56/61/11
f 49/95/11 58/96/11 57/79/11 50/64/11
f 62/68/12 63/67/12 64/92/12 61/91/12
f 59/69/10 46/66/10 45/97/10 60/98/10
f 67/61/13 69/80/13 70/94/13 68/93/13
f 71/90/14 64/89/14 63/48/14 72/82/14
f 69/41/12 75/42/12 76/84/12 70/83/12
f 73/64/13 62/79/13 61/96/13 74/95/13
f 44/42/4 29/41/4 47/41/4 46/42/4
f 95/65/6 66/69/6 75/66/6
f 58/88/2 49/87/2 52/86/2 54/85/2
f 3/99/3 78/100/3 95/101/3 41/102/3
f 5/103/2 80/104/2 93/105/2 38/106/2
f 30/107/2 91/108/2 92/109/2 29/110/2
f 26/110/3 89/109/3 90/108/3 25/107/3
f 7/111/5 79/112/5 82/112/5 20/111/5
f 18/113/6 85/114/6 88/114/6 23/113/6
f 21/111/5 81/112/5 80/112/5 5/111/5
f 9/29/2 83/28/2 82/31/2 22/30/2
f 1/115/6 77/116/6 87/116/6 13/115/6
f 16/115/6 86/116/6 78/116/6 3/115/6
f 14/24/3 84/14/3 81/34/3 21/25/3
f 9/117/5 24/117/5 84/118/5 83/118/5
f 23/8/2 88/7/2 86/10/2 16/9/2
f 39/106/3 94/105/3 79/104/3 7/103/3
f 17/18/3 85/17/3 87/20/3 11/19/3
f 44/102/2 96/101/2 77/100/2 1/99/2
f 40/119/8 31/120/8 51/51/8 50/52/8
f 32/121/8 42/122/8 59/71/8 56/70/8
f 43/122/7 27/121/7 67/70/7 66/71/7
f 28/120/7 37/119/7 73/52/7 72/51/7
f 37/63/5 94/62/5 73/64/5
f 41/66/6 95/65/6 75/66/6
f 53/48/6 51/82/6 91/47/6
f 29/80/5 92/59/5 47/80/5
f 31/81/6 91/47/6 51/82/6
f 42/78/6 96/65/6 59/69/6
f 50/64/5 57/79/5 93/62/5
f 56/61/5 47/80/5 92/59/5
f 38/79/5 93/62/5 57/79/5
f 69/80/5 67/61/5 89/59/5
f 25/48/6 90/47/6 63/48/6
f 27/60/5 89/59/5 67/61/5
f 94/62/5 62/79/5 73/64/5
f 65/98/14 76/97/14 75/66/14 66/69/14
f 35/123/5 33/123/5 97/124/5 98/124/5
f 34/125/6 36/125/6 100/126/6 99/126/6
f 36/127/2 35/128/2 98/129/2 100/130/2
f 34/127/3 99/130/3 97/129/3 33/128/3
f 97/131/1 99/132/1 100/132/1 98/131/1
f 114/133/2 112/134/2 103/135/2 104/136/2
f 101/137/1 102/138/1 104/138/1 103/137/1
f 102/139/6 109/140/15 114/140/15 104/139/6
f 108/141/16 106/142/17 111/142/17 115/141/16
f 108/141/16 115/141/16 116/143/18 110/144/18
f 110/145/18 116/146/18 114/140/15 109/140/15
f 105/147/19 112/147/19 113/148/20 107/149/20
f 107/150/20 113/151/20 111/142/17 106/142/17
f 105/147/19 101/152/5 103/152/5 112/147/19
f 116/153/2 113/154/2 112/134/2 114/133/2
f 115/155/2 111/156/2 113/154/2 116/153/2
f 117/157/21 122/158/22 129/159/23 121/160/24
f 122/158/22 118/161/25 123/162/26 129/159/23
f 130/163/27 125/164/28 120/165/29 126/166/30
f 124/167/31 130/163/27 126/166/30 119/168/32
f 119/168/32 126/169/30 131/170/2 127/171/33
f 126/169/30 120/165/29 128/172/34 131/170/2
f 131/170/2 128/172/34 118/161/25 122/173/22
f 127/171/33 131/170/2 122/173/22 117/157/21
f 132/174/35 124/175/31 119/168/32 127/176/33
f 121/177/24 132/174/35 127/176/33 117/157/21
f 133/178/36 123/179/26 118/161/25 128/180/34
f 125/181/28 133/178/36 128/180/34 120/165/29
f 134/157/21 139/158/22 146/159/23 138/160/24
f 139/158/22 135/161/25 140/162/26 146/159/23
f 147/163/27 142/164/28 137/165/29 143/166/30
f 141/167/31 147/163/27 143/166/30 136/168/32
f 136/168/32 143/169/30 148/170/2 144/171/33
f 143/169/30 137/165/29 145/172/34 148/170/2
f 148/170/2 145/172/34 135/161/25 139/173/22
f 144/171/33 148/170/2 139/173/22 134/157/21
f 149/174/35 141/175/31 136/168/32 144/176/33
f 138/177/24 149/174/35 144/176/33 134/157/21
f 150/178/36 140/179/26 135/161/25 145/180/34
f 142/181/28 150/178/36 145/180/34 137/165/29
